
<svg width="1189px" height="34px" viewBox="0 0 1189 34" version="1.1" xmlns="http://www.w3.org/2000/svg" xmlns:xlink="http://www.w3.org/1999/xlink">
    <!-- Generator: Sketch 51.2 (57519) - http://www.bohemiancoding.com/sketch -->
    <desc>Created with Sketch.</desc>
    <defs></defs>
    <g id="Page-1" stroke="none" stroke-width="1" fill="none" fill-rule="evenodd">
        <g id="Enterprise-Landing-Hero-Adjustment" transform="translate(-128.000000, -628.000000)">
            <g id="Logo-Wall" transform="translate(128.000000, 628.000000)">
                <g id="Top-Row">
                    <g id="Amazon.com-Logo-(1)" transform="translate(280.000000, 6.000000)" fill="#182237">
                        <path d="M57.8484439,21.6535907 C52.3976942,25.6541288 44.4971651,27.7885605 37.6949568,27.7885605 C28.1571633,27.7885605 19.5707017,24.2758955 13.0747116,18.4336489 C12.5643425,17.9742352 13.0216314,17.3481373 13.6340774,17.7059069 C20.6445169,21.7674284 29.3126429,24.210846 38.266573,24.210846 C44.3052663,24.210846 50.948242,22.9667746 57.0563494,20.385129 C57.9790988,19.9948308 58.7507775,20.9868351 57.8484439,21.6535907" id="path8"></path>
                        <path d="M60.6432294,19.2481618 C59.9491237,18.3618646 56.0376496,18.8294073 54.2819775,19.0367523 C53.7471078,19.1018017 53.6654512,18.6383251 54.1472377,18.3049442 C57.2625369,16.1217258 62.3744038,16.7518913 62.970516,17.4836964 C63.5666251,18.219569 62.8153636,23.32188 59.8878797,25.7571624 C59.4387546,26.1311963 59.0100437,25.931985 59.210111,25.4359813 C59.8674656,23.8016163 61.3414154,20.1385251 60.6432294,19.2481618" id="path10"></path>
                        <path d="M54.3720934,2.65889172 L54.3720934,0.536656704 C54.3720934,0.215475586 54.6170709,0 54.9110435,0 L64.4529173,0 C64.7591419,0 65.0041194,0.219541661 65.0041194,0.536656704 L65.0041194,2.35397335 C65.000039,2.65889172 64.7428097,3.05731895 64.2855161,3.68748452 L59.3410535,10.7168822 C61.1783869,10.6721631 63.1177924,10.9445544 64.7836395,11.8796399 C65.1592718,12.0910494 65.2613456,12.4000339 65.2899267,12.7049554 L65.2899267,14.9694859 C65.2899267,15.2784704 64.9469573,15.6403045 64.5876572,15.4532899 C61.652008,13.9205628 57.7527827,13.7538739 54.5068301,15.4695526 C54.1761111,15.6484382 53.8290598,15.290667 53.8290598,14.9816826 L53.8290598,12.8309882 C53.8290598,12.4854137 53.8331402,11.8959011 54.1801914,11.3714411 L59.9085847,3.19148391 L54.9232923,3.19148391 C54.6170709,3.19148391 54.3720934,2.97600987 54.3720934,2.65889172" id="path12"></path>
                        <path d="M19.4898952,16.1728967 L16.586912,16.1728967 C16.3092732,16.1525709 16.0887918,15.945226 16.0683761,15.6809606 L16.0683761,0.84564425 C16.0683761,0.548856478 16.317437,0.313050519 16.6277419,0.313050519 L19.3347428,0.313050519 C19.6164697,0.325239438 19.8410299,0.540722778 19.8614472,0.80905113 L19.8614472,2.74833761 L19.9145258,2.74833761 C20.6208772,0.874100569 21.9478368,0 23.736175,0 C25.5530909,0 26.6881532,0.874100569 27.5047453,2.74833761 C28.2070148,0.874100569 29.803451,0 31.5142129,0 C32.7309348,0 34.0619794,0.500066686 34.874488,1.62216834 C35.7931539,2.87030279 35.605337,4.68355336 35.605337,6.27319931 L35.6012551,15.6362415 C35.6012551,15.9330293 35.3521942,16.1728967 35.0418893,16.1728967 L32.1429864,16.1728967 C31.8530988,16.1525709 31.6203701,15.9208326 31.6203701,15.6362415 L31.6203701,7.77339936 C31.6203701,7.14729987 31.6775291,5.5861149 31.5387105,4.99253781 C31.322314,3.99647206 30.6731232,3.71594394 29.832032,3.71594394 C29.1297625,3.71594394 28.3948301,4.18348668 28.0967741,4.931556 C27.798718,5.67962376 27.827299,6.93182119 27.827299,7.77339936 L27.827299,15.6362415 C27.827299,15.9330293 27.5782381,16.1728967 27.2679332,16.1728967 L24.3690335,16.1728967 C24.0750609,16.1525709 23.8464141,15.9208326 23.8464141,15.6362415 L23.8423322,7.77339936 C23.8423322,6.11870708 24.1158876,3.68341999 22.0539956,3.68341999 C19.9676013,3.68341999 20.049261,6.05772062 20.049261,7.77339936 L20.049261,15.6362415 C20.049261,15.9330293 19.8002001,16.1728967 19.4898952,16.1728967" id="path14"></path>
                        <path d="M73.2164988,1.76300211e-14 C77.5240208,1.76300211e-14 79.8553894,3.68341999 79.8553894,8.36697491 C79.8553894,12.89197 77.2790403,16.4818811 73.2164988,16.4818811 C68.9865513,16.4818811 66.6837607,12.7984611 66.6837607,8.20841661 C66.6837607,3.58991113 69.0151324,0 73.2164988,0 M73.2409948,3.02886264 C71.1015266,3.02886264 70.9667867,5.93168782 70.9667867,7.74087542 C70.9667867,9.55412599 70.9382057,13.4245622 73.2164988,13.4245622 C75.4662092,13.4245622 75.5723665,10.3021953 75.5723665,8.3994973 C75.5723665,7.14729987 75.5192879,5.65116434 75.1395705,4.4640117 C74.8129334,3.43135594 74.1637457,3.02886264 73.2409948,3.02886264" id="path16"></path>
                        <path d="M85.3661536,16.1728967 L82.4754193,16.1728967 C82.185527,16.1525709 81.9527983,15.9208326 81.9527983,15.6362415 L81.9487179,0.796854458 C81.9732155,0.524460031 82.2141111,0.313050519 82.5080838,0.313050519 L85.1987555,0.313050519 C85.4518968,0.325239438 85.6601278,0.496002162 85.7172915,0.727740495 L85.7172915,2.99633559 L85.770367,2.99633559 C86.5828787,0.967609427 87.7220214,0 89.7267544,0 C91.0292179,0 92.2990201,0.467542742 93.1156121,1.74820114 C93.8750421,2.93535223 93.8750421,4.931556 93.8750421,6.36670506 L93.8750421,15.705357 C93.8423792,15.9655517 93.6014836,16.1728967 93.3156794,16.1728967 L90.4045278,16.1728967 C90.1391331,16.1525709 89.9186532,15.9574226 89.8900753,15.705357 L89.8900753,7.64736656 C89.8900753,6.02519822 90.0778907,3.6508945 88.0731561,3.6508945 C87.3668063,3.6508945 86.7176139,4.12250486 86.3950602,4.83804559 C85.9867665,5.7446732 85.9336879,6.64723319 85.9336879,7.64736656 L85.9336879,15.6362415 C85.9296076,15.9330293 85.6764617,16.1728967 85.3661568,16.1728967" id="path18"></path>
                        <path d="M46.3144838,9.2288788 C46.3144838,10.355045 46.3430649,11.294195 45.7714502,12.2943299 C45.3100764,13.1074487 44.575144,13.6075153 43.7626354,13.6075153 C42.6479872,13.6075153 41.9947145,12.7618711 41.9947145,11.5137366 C41.9947145,9.04999323 44.2117604,8.60277931 46.3144838,8.60277931 L46.3144838,9.2288788 M49.2419661,16.2745361 C49.0500689,16.4452911 48.7724253,16.4574878 48.5560289,16.3436532 C47.5924498,15.5467987 47.4168832,15.1768309 46.8901819,14.4165665 C45.2978276,16.0346687 44.1668456,16.5184711 42.1049521,16.5184711 C39.6592593,16.5184711 37.7606838,15.0182711 37.7606838,12.0138064 C37.7606838,9.66796212 39.0345692,8.07018713 40.8555687,7.28959542 C42.4315908,6.5984434 44.6323029,6.47647822 46.3144838,6.28539598 L46.3144838,5.9113621 C46.3144838,5.22427614 46.3675624,4.41115894 45.9592672,3.81758649 C45.6081325,3.28499276 44.930359,3.0654511 44.3301665,3.0654511 C43.2236821,3.0654511 42.2396919,3.63056723 41.9987948,4.80145557 C41.9497996,5.06165487 41.7579024,5.31778655 41.4925076,5.32998322 L38.6793496,5.02912783 C38.4425375,4.97627816 38.1771459,4.78519282 38.2465568,4.42335871 C38.891664,1.02452982 41.9783822,0 44.7384602,0 C46.151166,0 47.9966631,0.374033883 49.1113113,1.43921669 C50.524014,2.75240058 50.3892772,4.5046678 50.3892772,6.41142878 L50.3892772,10.9160966 C50.3892772,12.2699381 50.9527249,12.8635106 51.4835097,13.5953187 C51.6672447,13.8555133 51.7080746,14.1685638 51.4712531,14.3637122 C50.8792244,14.8556498 49.8258202,15.7704065 49.2460402,16.2826698 L49.2419599,16.2745284" id="path28"></path>
                        <path d="M8.55380036,9.2288788 C8.55380036,10.355045 8.58237829,11.294195 8.01076664,12.2943299 C7.54938964,13.1074487 6.8185407,13.6075153 6.00194864,13.6075153 C4.88730048,13.6075153 4.23811121,12.7618711 4.23811121,11.5137366 C4.23811121,9.04999323 6.45515718,8.60277931 8.55380036,8.60277931 L8.55380036,9.2288788 M11.4812811,16.2745361 C11.2893823,16.4452911 11.0117388,16.4574878 10.7953424,16.3436532 C9.83176631,15.5467987 9.66028006,15.1768309 9.1294953,14.4165665 C7.53714085,16.0346687 6.41024701,16.5184711 4.34426692,16.5184711 C1.90265607,16.5184711 0,15.0182711 0,12.0138064 C0,9.66796212 1.27796595,8.07018713 3.09488201,7.28959542 C4.67090406,6.5984434 6.87161934,6.47647822 8.55380036,6.28539598 L8.55380036,5.9113621 C8.55380036,5.22427614 8.60687899,4.41115894 8.20266563,3.81758649 C7.84744574,3.28499276 7.16967699,3.0654511 6.57356324,3.0654511 C5.46708354,3.0654511 4.47900522,3.63056723 4.23811121,4.80145557 C4.18911447,5.06165487 3.99721564,5.31778655 3.73590749,5.32998322 L0.918665878,5.02912783 C0.681853759,4.97627816 0.420544049,4.78519282 0.485871476,4.42335871 C1.1350623,1.02452982 4.21769551,0 6.97777816,0 C8.39047946,0 10.2359766,0.374033883 11.3506247,1.43921669 C12.7633305,2.75240058 12.6285907,4.5046678 12.6285907,6.41142878 L12.6285907,10.9160966 C12.6285907,12.2699381 13.1920415,12.8635106 13.7228262,13.5953187 C13.9106416,13.8555133 13.9514715,14.1685638 13.7146593,14.3637122 C13.1226306,14.8556498 12.069228,15.7704065 11.4894449,16.2826698 L11.4812811,16.2745284" id="path30"></path>
                    </g>
                    <g id="netflix-2" transform="translate(843.000000, 4.000000)" fill="#182237" fill-rule="nonzero">
                        <path d="M72.8088454,21.411541 C73.9966909,21.523851 75.1839678,21.6444802 76.3684016,21.769269 L78.9834813,15.4710391 L81.4692001,22.3502302 C82.744613,22.5060775 84.0194573,22.6696895 85.2903212,22.8405116 L80.9324236,10.7773161 L85.2917427,0.277308463 L81.5996982,0.277308463 L81.5613165,0.328887837 L79.20638,6.00123245 L77.1388806,0.278140388 L73.4934629,0.278140388 L77.2568691,10.6952328 L72.8091297,21.411541 L72.8088454,21.411541 Z M70.0518952,21.1647365 L70.0518952,0.277308463 L66.4078991,0.277308463 L66.4078991,20.8716215 C67.6233226,20.9631333 68.8393148,21.0613005 70.0518952,21.1644592 L70.0518952,21.1647365 Z M42.678567,19.9967133 C43.6622782,19.9967133 44.6448522,20.0039233 45.6257203,20.0116879 L45.6257203,12.3380081 L50.0032352,12.3380081 L50.0032352,9.07020521 L45.6260046,9.07020521 L45.6260046,3.54899371 L50.6676667,3.54899371 L50.6676667,0.277308463 L41.967793,0.277308463 L41.967793,19.9994863 C42.2040542,19.9994863 42.4414528,19.9958813 42.678567,19.9967133 L42.678567,19.9967133 Z M31.3647507,20.1963754 C32.5787527,20.1542245 33.793892,20.118729 35.0107371,20.0898889 L35.0107371,3.54954833 L38.4167661,3.54954833 L38.4167661,0.278140388 L27.9587217,0.278140388 L27.9587217,3.54954833 L31.3653194,3.54954833 L31.3653194,20.1963754 L31.3647507,20.1963754 Z M3.49558653,22.3987592 L3.49558653,9.95454189 L7.81026902,21.8962762 C9.13714192,21.7509666 10.466005,21.6142535 11.7985641,21.4850278 L11.7985641,0.277585771 L8.30212462,0.277585771 L8.30212462,13.1677151 L3.64627062,0.277585771 L0,0.277585771 L0,22.8460577 L0.0218918392,22.8460577 C1.17704174,22.6902104 2.33617198,22.5421276 3.49558653,22.3987592 L3.49558653,22.3987592 Z M24.4449394,3.5487164 L24.4449394,0.277585771 L15.7442127,0.277585771 L15.7442127,21.1314595 C18.6390266,20.8877235 21.5371807,20.6833274 24.4378317,20.5183305 L24.4378317,17.2441495 C22.7558561,17.3395436 21.0772922,17.4493577 19.4027086,17.5716508 L19.4027086,12.3393947 L23.7802235,12.3393947 L23.7802235,9.06965059 L19.4027086,9.06965059 L19.4027086,3.5487164 L24.4449394,3.5487164 Z M57.8894149,17.0877475 L57.8894149,0.276476538 L54.2294974,0.276476538 L54.2294974,20.2082996 C57.1408277,20.3125676 60.0407856,20.4578772 62.931077,20.6409008 L62.931077,17.3647786 C61.2536504,17.2591241 59.5733806,17.167335 57.8894149,17.0874702 L57.8894149,17.0877475 Z" id="Shape"></path>
                    </g>
                    <g id="Airbnb_Logo_BeÌlo-(1)" fill="#182237" fill-rule="nonzero">
                        <path d="M53.9657091,8.032 C53.9657091,9.184 53.0380694,10.112 51.8865166,10.112 C50.7349638,10.112 49.807324,9.184 49.807324,8.032 C49.807324,6.88 50.7029762,5.952 51.8865166,5.952 C53.0700569,5.984 53.9657091,6.912 53.9657091,8.032 Z M45.3930383,12.224 C45.3930383,12.416 45.3930383,12.736 45.3930383,12.736 C45.3930383,12.736 44.4014234,11.456 42.2902433,11.456 C38.8035973,11.456 36.0846532,14.112 36.0846532,17.792 C36.0846532,21.44 38.7716097,24.128 42.2902433,24.128 C44.433411,24.128 45.3930383,22.816 45.3930383,22.816 L45.3930383,23.36 C45.3930383,23.616 45.5849638,23.808 45.8408644,23.808 L48.4318582,23.808 L48.4318582,11.776 C48.4318582,11.776 46.0647774,11.776 45.8408644,11.776 C45.5849638,11.776 45.3930383,12 45.3930383,12.224 Z M45.3930383,19.936 C44.9132246,20.64 43.9535973,21.248 42.8020445,21.248 C40.7548395,21.248 39.1874482,19.968 39.1874482,17.792 C39.1874482,15.616 40.7548395,14.336 42.8020445,14.336 C43.9216097,14.336 44.9452122,14.976 45.3930383,15.648 L45.3930383,19.936 Z M50.3511128,11.776 L53.4219203,11.776 L53.4219203,23.808 L50.3511128,23.808 L50.3511128,11.776 Z M96.2212992,11.456 C94.110119,11.456 93.1185041,12.736 93.1185041,12.736 L93.1185041,5.984 L90.0476967,5.984 L90.0476967,23.808 C90.0476967,23.808 92.4147774,23.808 92.6386905,23.808 C92.8945911,23.808 93.0865166,23.584 93.0865166,23.36 L93.0865166,22.816 C93.0865166,22.816 94.0781315,24.128 96.1893116,24.128 C99.6759576,24.128 102.394902,21.44 102.394902,17.792 C102.394902,14.144 99.6759576,11.456 96.2212992,11.456 Z M95.7094979,21.216 C94.5259576,21.216 93.5983178,20.608 93.1185041,19.904 L93.1185041,15.616 C93.5983178,14.976 94.6219203,14.304 95.7094979,14.304 C97.7567029,14.304 99.3240942,15.584 99.3240942,17.76 C99.3240942,19.936 97.7567029,21.216 95.7094979,21.216 Z M88.4483178,16.672 L88.4483178,23.84 L85.3775104,23.84 L85.3775104,17.024 C85.3775104,15.04 84.7377588,14.24 83.0104296,14.24 C82.0827899,14.24 81.1231625,14.72 80.5153986,15.424 L80.5153986,23.808 L77.4445911,23.808 L77.4445911,11.776 L79.875647,11.776 C80.1315476,11.776 80.3234731,12 80.3234731,12.224 L80.3234731,12.736 C81.2191253,11.808 82.4026656,11.456 83.586206,11.456 C84.9296843,11.456 86.0492495,11.84 86.9449017,12.608 C88.0324793,13.504 88.4483178,14.656 88.4483178,16.672 Z M69.9914855,11.456 C67.8803054,11.456 66.8886905,12.736 66.8886905,12.736 L66.8886905,5.984 L63.817883,5.984 L63.817883,23.808 C63.817883,23.808 66.1849638,23.808 66.4088768,23.808 C66.6647774,23.808 66.8567029,23.584 66.8567029,23.36 L66.8567029,22.816 C66.8567029,22.816 67.8483178,24.128 69.9594979,24.128 C73.4461439,24.128 76.165088,21.44 76.165088,17.792 C76.1970756,14.144 73.4781315,11.456 69.9914855,11.456 Z M69.4796843,21.216 C68.2961439,21.216 67.3685041,20.608 66.8886905,19.904 L66.8886905,15.616 C67.3685041,14.976 68.3921066,14.304 69.4796843,14.304 C71.5268892,14.304 73.0942805,15.584 73.0942805,17.76 C73.0942805,19.936 71.5268892,21.216 69.4796843,21.216 Z M61.1629141,11.456 C62.0905538,11.456 62.5703675,11.616 62.5703675,11.616 L62.5703675,14.464 C62.5703675,14.464 60.0113613,13.6 58.4119824,15.424 L58.4119824,23.84 L55.3411749,23.84 L55.3411749,11.776 C55.3411749,11.776 57.7082557,11.776 57.9321687,11.776 C58.1880694,11.776 58.3799948,12 58.3799948,12.224 L58.3799948,12.736 C58.9557712,12.064 60.2032867,11.456 61.1629141,11.456 Z M29.2712992,22.72 C29.1113613,22.336 28.9514234,21.92 28.7914855,21.568 C28.5355849,20.992 28.2796843,20.448 28.0557712,19.936 L28.0237836,19.904 C25.8166408,15.104 23.44956,10.24 20.954529,5.44 L20.8585663,5.248 C20.6026656,4.768 20.346765,4.256 20.0908644,3.744 C19.7709886,3.168 19.4511128,2.56 18.9393116,1.984 C17.9157091,0.704 16.4442805,0 14.8768892,0 C13.2775104,0 11.8380694,0.704 10.7824793,1.92 C10.3026656,2.496 9.95080228,3.104 9.6309265,3.68 C9.37502588,4.192 9.11912526,4.704 8.86322464,5.184 L8.7672619,5.376 C6.30421843,10.176 3.9051501,15.04 1.69800725,19.84 L1.66601967,19.904 C1.44210663,20.416 1.186206,20.96 0.930305383,21.536 C0.770367495,21.888 0.610429607,22.272 0.450491718,22.688 C0.0346532091,23.872 -0.0932971014,24.992 0.0666407867,26.144 C0.418504141,28.544 2.01788302,30.56 4.22502588,31.456 C5.0567029,31.808 5.92036749,31.968 6.81601967,31.968 C7.07192029,31.968 7.39179607,31.936 7.64769669,31.904 C8.70328675,31.776 9.79086439,31.424 10.8464545,30.816 C12.1579451,30.08 13.4054607,29.024 14.8129141,27.488 C16.2203675,29.024 17.4998706,30.08 18.7793737,30.816 C19.8349638,31.424 20.9225414,31.776 21.9781315,31.904 C22.2340321,31.936 22.5539079,31.968 22.8098085,31.968 C23.7054607,31.968 24.6011128,31.808 25.4008023,31.456 C27.6399327,30.56 29.207324,28.512 29.5591874,26.144 C29.815088,25.024 29.6871377,23.904 29.2712992,22.72 Z M14.8449017,24.384 C13.1175725,22.208 11.9980072,20.16 11.6141563,18.432 C11.4542184,17.696 11.4222308,17.056 11.5181936,16.48 C11.5821687,15.968 11.7740942,15.52 12.0299948,15.136 C12.6377588,14.272 13.6613613,13.728 14.8449017,13.728 C16.028442,13.728 17.0840321,14.24 17.6598085,15.136 C17.9157091,15.52 18.1076346,15.968 18.1716097,16.48 C18.2675725,17.056 18.2355849,17.728 18.075647,18.432 C17.6917961,20.128 16.5722308,22.176 14.8449017,24.384 Z M27.6079451,25.888 C27.3840321,27.552 26.2644669,28.992 24.6970756,29.632 C23.9293737,29.952 23.0976967,30.048 22.2660197,29.952 C21.4663302,29.856 20.6666408,29.6 19.8349638,29.12 C18.683411,28.48 17.5318582,27.488 16.1883799,26.016 C18.29956,23.424 19.5790631,21.056 20.0588768,18.944 C20.2827899,17.952 20.3147774,17.056 20.2188147,16.224 C20.0908644,15.424 19.8029762,14.688 19.3551501,14.048 C18.3635352,12.608 16.7001812,11.776 14.8449017,11.776 C12.9896222,11.776 11.3262681,12.64 10.3346532,14.048 C9.88682712,14.688 9.59893892,15.424 9.47098861,16.224 C9.3430383,17.056 9.37502588,17.984 9.6309265,18.944 C10.1107402,21.056 11.4222308,23.456 13.5014234,26.048 C12.1899327,27.52 11.0063923,28.512 9.85483954,29.152 C9.02316253,29.632 8.22347308,29.888 7.42378364,29.984 C6.56011905,30.08 5.72844203,29.952 4.99272774,29.664 C3.42533644,29.024 2.30577122,27.584 2.08185818,25.92 C1.98589545,25.12 2.0498706,24.32 2.36974638,23.424 C2.46570911,23.104 2.625647,22.784 2.78558489,22.4 C3.00949793,21.888 3.26539855,21.344 3.52129917,20.8 L3.55328675,20.736 C5.76042961,15.968 8.12751035,11.104 10.5905538,6.368 L10.6865166,6.176 C10.9424172,5.696 11.1983178,5.184 11.4542184,4.704 C11.710119,4.192 11.9980072,3.712 12.3498706,3.296 C13.0216097,2.528 13.9172619,2.112 14.9088768,2.112 C15.9004917,2.112 16.7961439,2.528 17.467883,3.296 C17.8197464,3.712 18.1076346,4.192 18.3635352,4.704 C18.6194358,5.184 18.8753364,5.696 19.1312371,6.176 L19.2271998,6.368 C21.6582557,11.136 24.0253364,16 26.2324793,20.768 L26.2324793,20.8 C26.4883799,21.312 26.712293,21.888 26.9681936,22.4 C27.1281315,22.784 27.2880694,23.104 27.3840321,23.424 C27.6399327,24.256 27.7358954,25.056 27.6079451,25.888 Z" id="Shape"></path>
                    </g>
                    <g id="HBO_logo" transform="translate(561.000000, 2.000000)">
                        <path d="M32.96,0.125581395 C35.04,0.125581395 40.96,1.24011628 40.96,6.95406977 C40.96,11.5534884 38.72,12.919186 36.96,13.2331395 C35.68,13.4686047 40.64,13.2331395 40.64,18.994186 C40.64,27.1569767 33.44,26.8430233 33.44,26.8430233 L21.44,26.8430233 L21.44,0.125581395 L32.96,0.125581395 Z M28.16,6.64011425 L28.16,10.6744186 L32.16,10.6744186 C32.16,10.6744186 33.76,10.4860465 33.76,8.55523256 C33.76,6.6244186 32.16,6.64011628 32.16,6.64011628 L28.16,6.64011425 Z M28.16,16.4825581 L28.16,20.5639535 L32.16,20.5639535 C32.16,20.5639535 33.76,20.4069767 33.76,18.3662791 C33.76,16.4825581 32.16,16.4825581 32.16,16.4825581 L28.16,16.4825581 Z M0,0.125581395 L0,26.8430233 L7.52,26.8430233 L7.52,16.9534884 L12.32,16.9534884 L12.32,26.8430233 L19.84,26.8430233 L19.84,0.125581395 L12.32,0.125581395 L12.32,10.2034884 L7.52,10.2034884 L7.52,0.125581395 L0,0.125581395 Z" id="path3" fill="#182237" fill-rule="nonzero"></path>
                        <ellipse id="Oval" stroke="#182237" stroke-width="7.04" cx="53.6" cy="13.5" rx="10.4" ry="10.2034884"></ellipse>
                        <ellipse id="Oval" fill="#182237" fill-rule="nonzero" cx="53.6" cy="13.5" rx="5.6" ry="5.49418605"></ellipse>
                    </g>
                    <path d="M1120,2 L1120,3.91569 L1133.43071,3.91569 L1133.43071,2 L1120,2 Z M1135.33359,2 L1135.33359,3.91569 L1154.47302,3.91569 C1154.47302,3.91569 1152.51804,2 1149.92875,2 L1135.33359,2 Z M1158.22759,2 L1158.22759,3.91569 L1169.80661,3.91569 L1169.11937,2 L1158.22759,2 Z M1178.10821,2 L1177.4209,3.91569 L1188.89484,3.91569 L1188.89484,2 L1178.10821,2 Z M1120,5.72554 L1120,7.64123 L1133.43071,7.64123 L1133.43071,5.72554 L1120,5.72554 Z M1135.33359,5.72827 L1135.33359,7.6413 L1156.69392,7.6413 C1156.69392,7.6413 1156.44449,6.16689 1156.00931,5.72827 L1135.33359,5.72827 Z M1158.22759,5.72827 L1158.22759,7.6413 L1171.07615,7.6413 L1170.44003,5.72827 L1158.22759,5.72827 Z M1176.73359,5.72827 L1176.09748,7.6413 L1188.89484,7.6413 L1188.89484,5.72827 L1176.73359,5.72827 L1176.73359,5.72827 Z M1123.85965,9.45108 L1123.85965,11.3695 L1129.67615,11.3695 L1129.67615,9.45108 L1123.85965,9.45108 L1123.85965,9.45108 Z M1139.19332,9.45108 L1139.19332,11.3695 L1145.00981,11.3695 L1145.00981,9.45108 L1139.19332,9.45108 L1139.19332,9.45108 Z M1150.66726,9.45108 L1150.66726,11.3695 L1156.48375,11.3695 C1156.48375,11.3695 1156.85304,10.35639 1156.85304,9.45108 L1150.66726,9.45108 L1150.66726,9.45108 Z M1162.08731,9.45108 L1162.08731,11.3695 L1172.39957,11.3695 L1171.71226,9.45108 L1162.08731,9.45108 L1162.08731,9.45108 Z M1175.46682,9.45108 L1174.77682,11.3695 L1185.14028,11.3695 L1185.14028,9.45108 L1175.46682,9.45108 L1175.46682,9.45108 Z M1123.85965,13.17942 L1123.85965,15.09511 L1129.67615,15.09511 L1129.67615,13.17942 L1123.85965,13.17942 L1123.85965,13.17942 Z M1139.19332,13.17942 L1139.19332,15.09511 L1154.04984,15.09511 C1154.04984,15.09511 1155.29267,14.11217 1155.68859,13.17942 L1139.19332,13.17942 Z M1162.08731,13.17942 L1162.08731,15.09511 L1167.9038,15.09511 L1167.9038,14.02873 L1168.27309,15.09511 L1178.92766,15.09511 L1179.32385,14.02873 L1179.32385,15.09511 L1185.14035,15.09511 L1185.14035,13.17942 L1174.22158,13.17942 L1173.64212,14.80202 L1173.0599,13.17942 L1162.08731,13.17942 Z M1123.85965,16.90496 L1123.85965,18.82065 L1129.67615,18.82065 L1129.67615,16.90496 L1123.85965,16.90496 Z M1139.19332,16.90496 L1139.19332,18.82065 L1155.68859,18.82065 C1155.2926,17.89098 1154.04984,16.90496 1154.04984,16.90496 L1139.19332,16.90496 Z M1162.08731,16.90496 L1162.08731,18.82065 L1167.9038,18.82065 L1167.9038,16.90496 L1162.08731,16.90496 Z M1168.96033,16.90496 L1169.66378,18.82065 L1177.65267,18.82065 L1178.32115,16.90496 L1168.96033,16.90496 Z M1179.32378,16.90496 L1179.32378,18.82065 L1185.14028,18.82065 L1185.14028,16.90496 L1179.32378,16.90496 Z M1123.85965,20.6305 L1123.85965,22.54612 L1129.67615,22.54612 L1129.67615,20.6305 L1123.85965,20.6305 Z M1139.19332,20.6305 L1139.19332,22.54612 L1145.00981,22.54612 L1145.00981,20.6305 L1139.19332,20.6305 Z M1150.66726,20.6305 L1150.66726,22.54612 L1156.85297,22.54612 C1156.85297,21.64207 1156.48368,20.6305 1156.48368,20.6305 L1150.66726,20.6305 L1150.66726,20.6305 Z M1162.08731,20.6305 L1162.08731,22.54612 L1167.9038,22.54612 L1167.9038,20.6305 L1162.08731,20.6305 Z M1170.28106,20.6305 L1170.96299,22.54612 L1176.31856,22.54612 L1177.00587,20.6305 L1170.28106,20.6305 Z M1179.32378,20.6305 L1179.32378,22.54612 L1185.14028,22.54612 L1185.14028,20.6305 L1179.32378,20.6305 Z M1120.10509,24.35604 L1120.10509,26.27446 L1133.5358,26.27446 L1133.5358,24.35604 L1120.10509,24.35604 Z M1135.33359,24.35604 L1135.33359,26.27446 L1156.00931,26.27446 C1156.44449,25.83521 1156.69392,24.35604 1156.69392,24.35604 L1135.33359,24.35604 L1135.33359,24.35604 Z M1158.33274,24.35604 L1158.33274,26.27446 L1167.9038,26.27446 L1167.9038,24.35604 L1158.33274,24.35604 Z M1171.60441,24.35604 L1172.30517,26.27446 L1175.03012,26.27446 L1175.68776,24.35604 L1171.60441,24.35604 Z M1179.32378,24.35604 L1179.32378,26.27446 L1189,26.27446 L1189,24.35604 L1179.32378,24.35604 Z M1120.10509,28.08431 L1120.10509,30 L1133.5358,30 L1133.5358,28.08431 L1120.10509,28.08431 Z M1135.33359,28.08431 L1135.33359,29.99727 L1149.92875,29.99727 C1152.51804,29.99727 1154.47302,28.08431 1154.47302,28.08431 L1135.33359,28.08431 Z M1158.33274,28.08431 L1158.33274,30 L1167.9038,30 L1167.9038,28.08431 L1158.33274,28.08431 Z M1172.93321,28.08431 L1173.60707,29.99461 L1173.72299,29.99727 L1174.4076,28.08431 L1172.93321,28.08431 L1172.93321,28.08431 Z M1179.32378,28.08431 L1179.32378,30 L1189,30 L1189,28.08431 L1179.32378,28.08431 Z" id="Shape" fill="#182237" fill-rule="nonzero"></path>
                </g>
            </g>
        </g>
    </g>
</svg>