
<svg width="152px" height="29px" viewBox="0 0 152 29" version="1.1" xmlns="http://www.w3.org/2000/svg" xmlns:xlink="http://www.w3.org/1999/xlink">
    <!-- Generator: Sketch 51.2 (57519) - http://www.bohemiancoding.com/sketch -->
    <desc>Created with Sketch.</desc>
    <defs></defs>
    <g id="Page-1" stroke="none" stroke-width="1" fill="none" fill-rule="evenodd">
        <g id="Enterprise-Landing-Form-Modal" transform="translate(-45.000000, -45.000000)" fill-rule="nonzero">
            <g id="invision_branding_enterprise_secondary_horizontal_pink-black" transform="translate(45.000000, 45.000000)">
                <path d="M2.70804598,0 L26.696092,0 C28.1636782,0 29.3517241,1.17380952 29.3517241,2.62380952 L29.3517241,26.3244048 C29.3517241,27.7744048 28.1636782,28.9482143 26.696092,28.9482143 L2.70804598,28.9482143 C1.24045977,28.9482143 0.0524137931,27.7744048 0.0524137931,26.3244048 L0.0524137931,2.62380952 C0.0524137931,1.17380952 1.24045977,0 2.70804598,0 Z" id="Shape" fill="#FF3366"></path>
                <path d="M9.8537931,9.09702381 C10.8321839,9.0797619 11.6009195,8.28571429 11.5834483,7.33630952 C11.565977,6.36964286 10.7622989,5.61011905 9.80137931,5.62738095 C8.84045977,5.64464286 8.07172414,6.42142857 8.05425287,7.37083333 C8.05425287,8.3202381 8.85793103,9.09702381 9.8537931,9.09702381 C9.83632184,9.09702381 9.83632184,9.09702381 9.8537931,9.09702381 Z" id="Shape" fill="#FFFFFF"></path>
                <path d="M6.13241379,18.4357143 C6.02758621,18.8672619 5.97517241,19.2988095 5.97517241,19.747619 C5.97517241,21.2839286 6.8137931,22.302381 8.61333333,22.302381 C10.0983908,22.302381 11.303908,21.4392857 12.1774713,20.0238095 L11.6533333,22.1297619 L14.605977,22.1297619 L16.2832184,15.4494048 C16.7025287,13.7577381 17.5236782,12.877381 18.7641379,12.877381 C19.7425287,12.877381 20.3365517,13.4815476 20.3365517,14.4654762 C20.3365517,14.7761905 20.3016092,15.1041667 20.1967816,15.397619 L19.3232184,18.4702381 C19.2009195,18.8845238 19.1310345,19.3333333 19.1485057,19.764881 C19.1485057,21.214881 20.022069,22.285119 21.8390805,22.285119 C23.394023,22.285119 24.6344828,21.3011905 25.3158621,18.9363095 L24.1627586,18.4875 C23.5862069,20.0755952 23.0795402,20.3690476 22.6951724,20.3690476 C22.3108046,20.3690476 22.0836782,20.110119 22.0836782,19.5922619 C22.1011494,19.3160714 22.136092,19.0571429 22.2234483,18.7809524 L23.062069,15.7946429 C23.2542529,15.1732143 23.3416092,14.5345238 23.3590805,13.8958333 C23.3590805,11.6517857 21.9963218,10.4952381 20.3365517,10.4952381 C18.7816092,10.4952381 17.2091954,11.8761905 16.4055172,13.3434524 L16.982069,10.7196429 L12.4744828,10.7196429 L11.8455172,13.0154762 L13.9595402,13.0154762 L12.6666667,18.1422619 C11.6533333,20.3863095 9.78390805,20.4208333 9.53931034,20.3690476 C9.15494253,20.2827381 8.91034483,20.1446429 8.91034483,19.6440476 C8.92781609,19.2470238 8.98022989,18.8327381 9.08505747,18.4529762 L11.0593103,10.7196429 L6.06252874,10.7196429 L5.43356322,13.0154762 L7.51264368,13.0154762 L6.13241379,18.4357143 Z" id="Shape" fill="#FFFFFF"></path>
                <polygon id="Shape" fill="#17191D" points="50.6491954 22.475 38.8910345 22.475 38.8910345 5.95535714 50.6491954 5.95535714 50.6491954 8.56190476 41.7388506 8.56190476 41.7388506 12.7910714 50.2473563 12.7910714 50.2473563 15.397619 41.7563218 15.397619 41.7563218 19.8684524 50.6666667 19.8684524"></polygon>
                <path d="M55.9604598,11.9970238 C56.4845977,11.047619 57.7250575,10.1154762 59.7342529,10.1154762 C62.7043678,10.1154762 64.2767816,12.0660714 64.2767816,14.8797619 L64.2767816,22.475 L61.4813793,22.475 L61.4813793,15.225 C61.4813793,13.5678571 60.7301149,12.4803571 59.0528736,12.4803571 C57.2882759,12.4803571 56.1701149,13.5678571 56.1701149,15.4666667 L56.1701149,22.475 L53.3747126,22.475 L53.3747126,10.3916667 L55.9604598,10.3916667 L55.9604598,11.9970238 Z" id="Shape" fill="#17191D"></path>
                <polygon id="Shape" fill="#17191D" points="70.3567816 22.475 67.5613793 22.475 67.5613793 12.6011905 65.691954 12.6011905 65.691954 10.3916667 67.543908 10.3916667 67.543908 7.25 70.3393103 7.25 70.3393103 10.3916667 72.3834483 10.3916667 72.3834483 12.6011905 70.3393103 12.6011905 70.3393103 22.475"></polygon>
                <path d="M75.9126437,17.2446429 C76.1222989,19.1607143 77.3802299,20.3863095 79.3195402,20.3863095 C80.6124138,20.3863095 81.7305747,19.7303571 82.1673563,18.660119 L84.9977011,18.660119 C84.263908,21.0595238 82.0974713,22.7511905 79.2496552,22.7511905 C75.5457471,22.7511905 73.1521839,20.0238095 73.1521839,16.4160714 C73.1521839,12.8946429 75.5981609,10.1154762 79.2321839,10.1154762 C82.8662069,10.1154762 85.2422989,12.8428571 85.2422989,16.3815476 C85.2422989,16.8303571 85.2248276,17.2446429 85.2248276,17.2446429 L75.9126437,17.2446429 Z M75.9475862,15.1904762 L82.4643678,15.1904762 C82.2372414,13.5160714 81.0491954,12.3767857 79.2321839,12.3767857 C77.4151724,12.3767857 76.2445977,13.5333333 75.9475862,15.1904762 Z" id="Shape" fill="#17191D"></path>
                <path d="M93.9255172,12.8946429 C93.7158621,12.860119 93.5062069,12.8428571 93.2965517,12.8428571 C91.3222989,12.8428571 90.1342529,13.8613095 90.1342529,16.1916667 L90.1342529,22.475 L87.3388506,22.475 L87.3388506,10.3916667 L89.9245977,10.3916667 L89.9245977,12.0660714 C90.3788506,11.2892857 91.4096552,10.2708333 93.5236782,10.2708333 C93.645977,10.2708333 93.9255172,10.2880952 93.9255172,10.2880952 L93.9255172,12.8946429 Z" id="Shape" fill="#17191D"></path>
                <path d="M98.6427586,27.3255952 L95.8473563,27.3255952 L95.8473563,10.4089286 L98.4331034,10.4089286 L98.4331034,12.135119 C99.2367816,10.8922619 100.669425,10.1327381 102.556322,10.1327381 C106.190345,10.1327381 108.234483,12.9982143 108.234483,16.4678571 C108.234483,19.9375 106.190345,22.7684524 102.556322,22.7684524 C100.669425,22.7684524 99.3241379,21.9571429 98.6427586,20.9041667 L98.6427586,27.3255952 Z M101.997241,20.3172619 C104.111264,20.3172619 105.43908,18.6255952 105.43908,16.4505952 C105.43908,14.2065476 104.128736,12.514881 101.997241,12.514881 C99.8657471,12.514881 98.5554023,14.2065476 98.5554023,16.4505952 C98.5554023,18.6083333 99.8482759,20.3172619 101.997241,20.3172619 Z" id="Shape" fill="#17191D"></path>
                <path d="M116.708046,12.8946429 C116.498391,12.860119 116.288736,12.8428571 116.07908,12.8428571 C114.104828,12.8428571 112.916782,13.8613095 112.916782,16.1916667 L112.916782,22.475 L110.121379,22.475 L110.121379,10.3916667 L112.707126,10.3916667 L112.707126,12.0660714 C113.161379,11.2892857 114.192184,10.2708333 116.306207,10.2708333 C116.428506,10.2708333 116.708046,10.2880952 116.708046,10.2880952 L116.708046,12.8946429 Z" id="Shape" fill="#17191D"></path>
                <path d="M118.262989,6.68035714 C118.228046,5.74821429 118.944368,4.97142857 119.887816,4.93690476 C119.94023,4.93690476 119.975172,4.93690476 120.027586,4.93690476 C121.04092,4.93690476 121.774713,5.66190476 121.774713,6.68035714 C121.774713,7.69880952 121.04092,8.37202381 120.027586,8.37202381 C119.014253,8.37202381 118.262989,7.68154762 118.262989,6.68035714 Z M118.612414,10.3916667 L121.407816,10.3916667 L121.407816,22.475 L118.612414,22.475 L118.612414,10.3916667 Z" id="Shape" fill="#17191D"></path>
                <path d="M123.469425,18.6083333 L126.177471,18.6083333 C126.247356,19.6613095 127.103448,20.472619 128.815632,20.472619 C130.283218,20.472619 131.069425,19.9375 131.069425,19.0916667 C131.069425,16.5369048 124.045977,18.8154762 124.045977,13.8958333 C124.045977,11.8761905 125.88046,10.0982143 128.902989,10.0982143 C132.414713,10.0982143 133.585287,12.4803571 133.707586,14.1029762 L131.034483,14.1029762 C130.947126,13.239881 130.283218,12.3595238 128.850575,12.3595238 C127.452874,12.3595238 126.754023,12.9119048 126.754023,13.8095238 C126.754023,16.1571429 133.777471,14.0857143 133.777471,18.9708333 C133.777471,21.025 132.082759,22.7339286 128.658391,22.7339286 C125.076782,22.7511905 123.609195,20.8178571 123.469425,18.6083333 Z" id="Shape" fill="#17191D"></path>
                <path d="M138.005517,17.2446429 C138.215172,19.1607143 139.473103,20.3863095 141.429885,20.3863095 C142.722759,20.3863095 143.84092,19.7303571 144.277701,18.660119 L147.108046,18.660119 C146.374253,21.0595238 144.207816,22.7511905 141.36,22.7511905 C137.656092,22.7511905 135.262529,20.0238095 135.262529,16.4160714 C135.262529,12.8946429 137.708506,10.1154762 141.342529,10.1154762 C144.976552,10.1154762 147.352644,12.8428571 147.352644,16.3815476 C147.352644,16.8303571 147.335172,17.2446429 147.335172,17.2446429 L138.005517,17.2446429 Z M138.057931,15.1904762 L144.557241,15.1904762 C144.330115,13.5160714 143.142069,12.3767857 141.325057,12.3767857 C139.508046,12.3767857 138.337471,13.5333333 138.057931,15.1904762 Z" id="Shape" fill="#17191D"></path>
                <rect id="Rectangle-path" fill="#FF3366" x="149.134713" y="19.747619" width="2.81287356" height="2.76190476"></rect>
            </g>
        </g>
    </g>
</svg>