
<svg width="90px" height="31px" viewBox="0 0 90 31" version="1.1" xmlns="http://www.w3.org/2000/svg" xmlns:xlink="http://www.w3.org/1999/xlink">
    <!-- Generator: Sketch 51.2 (57519) - http://www.bohemiancoding.com/sketch -->
    <desc>Created with Sketch.</desc>
    <defs>
        <polygon id="path-1" points="15.0520004 0 0.00684026375 0 0.00684026375 30.0903202 30.0971605 30.0903202 30.0971605 0"></polygon>
    </defs>
    <g id="Page-1" stroke="none" stroke-width="1" fill="none" fill-rule="evenodd">
        <g id="Enterprise-Landing-Hero-Adjustment" transform="translate(-88.000000, -75.000000)">
            <g id="Hero" transform="translate(88.000000, 66.000000)">
                <g id="Nav">
                    <g id="invision-logo-pink" transform="translate(0.000000, 9.000000)">
                        <g id="Group-3">
                            <mask id="mask-2" fill="white">
                                <use xlink:href="#path-1"></use>
                            </mask>
                            <g id="Clip-2"></g>
                            <path d="M27.3688073,0 L2.7283532,0 C1.2215571,0 0,1.2215571 0,2.7283532 L0,27.3688073 C0,28.8756034 1.2215571,30.0971605 2.7283532,30.0971605 L27.3688073,30.0971605 C28.8756034,30.0971605 30.0971605,28.8756034 30.0971605,27.3688073 L30.0971605,2.7283532 C30.0971605,1.2215571 28.8756034,0 27.3688073,0" id="Fill-1" fill="#FF3366" mask="url(#mask-2)"></path>
                        </g>
                        <path d="M58.6800904,22.5410284 L61.5735387,22.5410284 L61.5735387,10.394353 L58.6800904,10.394353 L58.6800904,22.5410284 Z M85.5050851,10.1408451 C83.5443275,10.1408451 82.3731399,11.130198 81.5599837,12.2802931 L81.5599837,10.394353 L78.6673368,10.394353 L78.6673368,22.5410284 L81.5599837,22.5410284 L81.5599837,15.684857 C81.5599837,13.7985863 82.7316293,12.6715172 84.4054579,12.6715172 C86.1271461,12.6715172 87.1070096,13.7524238 87.1070096,15.6388047 L87.1070096,22.5410284 L90,22.5410284 L90,14.8109653 C90,11.981394 88.3502158,10.1408451 85.5050851,10.1408451 Z M70.2041922,20.4015803 C67.9563912,20.4015803 66.3545811,18.6298895 66.3545811,16.4673051 C66.3545811,14.3281875 67.8368566,12.5791923 70.156218,12.5791923 C72.4272618,12.5791923 74.0294154,14.3505526 74.0294154,16.5134675 C74.0294154,18.6529156 72.5467965,20.4015803 70.2041922,20.4015803 Z M70.2041922,10.1408451 C66.3309948,10.1408451 63.4615908,13.0161381 63.4615908,16.5134675 C63.4615908,19.9868894 66.306607,22.8169014 70.156218,22.8169014 C74.0538032,22.8169014 76.9228637,19.9411677 76.9228637,16.4673051 C76.9228637,12.9707469 74.0770461,10.1408451 70.2041922,10.1408451 Z M34.3905126,19.3199025 L30.9955683,10.394353 L27.8873239,10.394353 L33.0757459,22.6325821 L35.6816929,22.6325821 L40.845956,10.394353 L37.8096157,10.394353 L34.3905126,19.3199025 Z M52.8472804,15.3633723 C51.3646615,14.902519 50.0014628,14.5347618 50.0014628,13.6608701 L50.0014628,13.6147076 C50.0014628,12.9015583 50.6471101,12.3953137 51.7707816,12.3953137 C52.3188778,12.3953137 52.9323516,12.5162836 53.5664348,12.7303496 L53.5659768,12.7288071 C53.5659768,12.7288071 53.5722741,12.7317818 53.5841818,12.7370701 C53.6386822,12.7556893 53.6940987,12.776512 53.7494006,12.7965635 C54.2069298,12.9358221 55.4413197,13.1219041 56.4814085,11.5675845 C55.1422541,10.7159478 53.4213673,10.186677 51.8423421,10.186677 C49.3323435,10.186677 47.3478852,11.5898394 47.3478852,13.8909112 L47.3478852,13.9370736 C47.3478852,16.2604003 49.4278338,16.9965758 51.292643,17.5028204 C52.7753765,17.9397663 54.1145309,18.2616916 54.1145309,19.204882 L54.1145309,19.2507139 C54.1145309,20.0561882 53.3969795,20.5623226 52.1537734,20.5623226 C51.3271066,20.5623226 50.421895,20.3524432 49.5198893,19.9433711 C49.260325,19.8380458 47.9099499,19.3936082 46.7553643,20.9735982 C48.3285502,22.1557537 50.2993834,22.7710695 52.0822129,22.7710695 C54.7114027,22.7710695 56.7681085,21.5062843 56.7681085,18.9518148 L56.7681085,18.9059828 C56.7681085,16.720813 54.6881598,15.9153387 52.8472804,15.3633723 Z M42.2794558,22.5410284 L45.1724462,22.5410284 L45.1724462,10.394353 L42.2794558,10.394353 L42.2794558,22.5410284 Z" id="Fill-4" fill="#FF3366"></path>
                        <path d="M8.87320013,8.87323944 C9.56302787,8.87323944 10.1408451,8.05009351 10.1408451,6.97135234 C10.1408451,5.89332914 9.56302787,5.07042254 8.87320013,5.07042254 C8.183451,5.07042254 7.6056338,5.89332914 7.6056338,6.97135234 C7.6056338,8.05009351 8.183451,8.87323944 8.87320013,8.87323944" id="Fill-5" fill="#FFFFFE"></path>
                        <path d="M7.08909294,18.671036 C6.98195958,19.1456025 6.92811008,19.6580684 6.92811008,20.0761388 C6.92811008,21.7233506 7.78676073,22.8169014 9.61119536,22.8169014 C11.1244116,22.8169014 12.3510715,21.8818925 13.2342712,20.3723898 L12.6949843,22.6243442 L15.6996959,22.6243442 L17.4169971,15.4582964 C17.8462093,13.643833 18.6779352,12.7021151 19.9390996,12.7021151 C20.9318083,12.7021151 21.5489281,13.3444041 21.5489281,14.4047636 C21.5489281,14.7120783 21.5220034,15.0466994 21.4147569,15.4096863 L20.5291815,18.7035212 C20.3950102,19.1780877 20.3416133,19.6530073 20.3416133,20.099208 C20.3416133,21.6629705 21.2267361,22.8067792 23.0780955,22.8067792 C24.6611124,22.8067792 25.9220505,21.7465375 26.6197183,19.206218 L25.4393282,18.7320046 C24.8489069,20.4339469 24.3391467,20.7416147 23.9367462,20.7416147 C23.5342325,20.7416147 23.3195132,20.4626657 23.3195132,19.9046499 C23.3195132,19.6534781 23.3733627,19.3746467 23.4536845,19.0389663 L24.3124482,15.8298754 C24.5269412,15.0763598 24.6076023,14.4081769 24.6076023,13.7942536 C24.6076023,11.393644 23.2122668,10.1408451 21.5220034,10.1408451 C19.9390996,10.1408451 18.3291579,11.626337 17.5244699,13.1897463 L18.1145518,10.3835425 L13.5267102,10.3835425 L12.8826656,12.8552428 L15.0291791,12.8552428 L13.7074906,18.3610142 C12.6694171,20.7616237 10.7627375,20.8005824 10.5234692,20.7447926 C10.1305715,20.6526335 9.8794247,20.4973872 9.8794247,19.966207 C9.8794247,19.6597162 9.93293481,19.2195181 10.067106,18.688691 L12.0795614,10.3835425 L6.98195958,10.3835425 L6.33802817,12.8552428 L8.45739063,12.8552428 L7.08909294,18.671036" id="Fill-6" fill="#FFFFFE"></path>
                    </g>
                </g>
            </g>
        </g>
    </g>
</svg>